<svg xmlns="http://www.w3.org/2000/svg" width="16" height="16" viewBox="0 0 4.233 4.233"><path fill="currentColor" d="M1.852 0v.661h.53V0zM.926.53a.13.13 0 0 0-.132.13v1.323c0 .074.059.133.132.133h.698a.27.27 0 0 1-.036-.133v-.132h-.53V.794h.566a.27.27 0 0 1-.036-.132V.529H.926zm1.718 0v.132a.27.27 0 0 1-.035.132h.566v1.058h-.53v.132a.27.27 0 0 1-.037.133h.7a.13.13 0 0 0 .132-.133V.661A.13.13 0 0 0 3.307.53zm-.792.66v.794h.53v-.793zM.397 2.382a.13.13 0 0 0-.132.133v1.322c0 .074.059.133.132.133h1.191v-.133a.27.27 0 0 1 .035-.132H.53V2.646h1.059v-.132a.27.27 0 0 1 .036-.133H.397zm2.211 0a.27.27 0 0 1 .036.133v.132h1.06v1.058H2.61a.27.27 0 0 1 .035.132v.133h1.192a.13.13 0 0 0 .133-.133V2.514a.13.13 0 0 0-.133-.133H2.608zm-.756.133v.793h.53v-.793zm0 1.322v.397h.53v-.397z"/><path fill="currentColor" fill-opacity=".931" d="M1.058.53v1.587h2.117V.529H1.058zM.53 2.38v1.59h3.175V2.38z" opacity=".1"/></svg>