<svg xmlns="http://www.w3.org/2000/svg" width="16" height="16"><g fill="currentColor"><path d="m5 12 3 4 3-4z"/><g stroke-linecap="round" stroke-linejoin="round"><path d="M3 0C1.892 0 1 .892 1 2v7c0 1.108.892 2 2 2h10c1.108 0 2-.892 2-2V2c0-1.108-.892-2-2-2zm0 1h10c.554 0 1 .446 1 1v7c0 .554-.446 1-1 1H3c-.554 0-1-.446-1-1V2c0-.554.446-1 1-1" style="paint-order:markers stroke fill"/><rect width="4" height="2" x="6" y="6" rx="1" ry="1" style="paint-order:markers stroke fill"/><g stroke-width="2"><rect width="2" height="2" x="11" y="6" rx="1" ry="1" style="paint-order:markers stroke fill"/><rect width="2" height="2" x="3" y="6" rx="1" ry="1" style="paint-order:markers stroke fill"/><rect width="2" height="2" x="4" y="3" rx="1" ry="1" style="paint-order:markers stroke fill"/><rect width="2" height="2" x="7" y="3" rx="1" ry="1" style="paint-order:markers stroke fill"/><rect width="2" height="2" x="10" y="3" rx="1" ry="1" style="paint-order:markers stroke fill"/></g></g></g></svg>