<svg xmlns="http://www.w3.org/2000/svg" width="16" height="16"><path fill="currentColor" d="M8 1C4.14 1 1 4.14 1 8s3.14 7 7 7 7-3.14 7-7-3.14-7-7-7M5.494 4.994a.5.5 0 0 1 .36.152L8 7.293l2.146-2.147a.5.5 0 0 1 .344-.15.5.5 0 0 1 .364.857L8.707 8l2.147 2.146a.5.5 0 1 1-.708.708L8 8.707l-2.147 2.147a.5.5 0 0 1-.707-.708L7.293 8 5.146 5.853a.5.5 0 0 1 .348-.859" style="font-feature-settings:normal;font-variant-alternates:normal;font-variant-caps:normal;font-variant-ligatures:normal;font-variant-numeric:normal;font-variant-position:normal;font-variation-settings:normal;isolation:auto;mix-blend-mode:normal;shape-padding:0;text-decoration-color:#000;text-decoration-line:none;text-decoration-style:solid;text-indent:0;text-orientation:mixed;text-transform:none"/></svg>