<svg xmlns="http://www.w3.org/2000/svg" width="16.005" height="16"><g fill="currentColor"><path d="m4.299 2-2.857 8h1.279l.605-1.715h3.182L7.115 10h1.344L5.442 2zm.61 1.871 1.206 3.272H3.721zM10 5v1h2.5c.214 0 .5.307.5.5V7h-2.5c-.46 0-.868.192-1.125.484A1.5 1.5 0 0 0 9 8.5c.003.36.135.726.39 1.016.257.289.656.484 1.11.484H14v-.422c.008-.047 0-.078 0-.078v-3A1.5 1.5 0 0 0 12.5 5zm.5 3H13v1h-2.5c-.199 0-.283-.055-.36-.14A.57.57 0 0 1 10 8.5a.56.56 0 0 1 .125-.36c.073-.082.164-.14.375-.14"/><path d="m595.5 115.793-2.354 2.353a.5.5 0 1 0 .708.708l1.646-1.647 2 2 2-2 2 2 2-2 2 2 2.354-2.353a.5.5 0 1 0-.708-.708l-1.646 1.647-2-2-2 2-2-2-2 2z" font-family="sans-serif" font-weight="400" overflow="visible" style="font-feature-settings:normal;font-variant-alternates:normal;font-variant-caps:normal;font-variant-ligatures:normal;font-variant-numeric:normal;font-variant-position:normal;isolation:auto;mix-blend-mode:normal;shape-padding:0;text-decoration-color:#000;text-decoration-line:none;text-decoration-style:solid;text-indent:0;text-orientation:mixed;text-transform:none" transform="translate(-593 -105)"/></g></svg>