<?xml version="1.0" encoding="UTF-8" standalone="no"?>
<svg
   width="64"
   height="64"
   version="1.1"
   viewBox="0 0 16.933 16.933"
   id="svg7"
   sodipodi:docname="betterbird.svg"
   inkscape:version="1.4.2 (ebf0e940d0, 2025-05-08)"
   xmlns:inkscape="http://www.inkscape.org/namespaces/inkscape"
   xmlns:sodipodi="http://sodipodi.sourceforge.net/DTD/sodipodi-0.dtd"
   xmlns:xlink="http://www.w3.org/1999/xlink"
   xmlns="http://www.w3.org/2000/svg"
   xmlns:svg="http://www.w3.org/2000/svg">
  <sodipodi:namedview
     id="namedview7"
     pagecolor="#ffffff"
     bordercolor="#000000"
     borderopacity="0.25"
     inkscape:showpageshadow="2"
     inkscape:pageopacity="0.0"
     inkscape:pagecheckerboard="0"
     inkscape:deskcolor="#d1d1d1"
     inkscape:zoom="4"
     inkscape:cx="42.25"
     inkscape:cy="70.375"
     inkscape:window-width="1920"
     inkscape:window-height="1011"
     inkscape:window-x="0"
     inkscape:window-y="0"
     inkscape:window-maximized="1"
     inkscape:current-layer="svg7" />
  <defs
     id="defs4">
    <linearGradient
       id="linearGradient7"
       inkscape:collect="always">
      <stop
         style="stop-color:#d08770;stop-opacity:1;"
         offset="0.39088234"
         id="stop7" />
      <stop
         style="stop-color:#bf616a;stop-opacity:1;"
         offset="1"
         id="stop8" />
    </linearGradient>
    <filter
       id="filter1178"
       x="-0.047999482"
       y="-0.047999482"
       width="1.095999"
       height="1.095999"
       color-interpolation-filters="sRGB">
      <feGaussianBlur
         stdDeviation="0.30691668"
         id="feGaussianBlur1" />
    </filter>
    <linearGradient
       id="linearGradient1340"
       x1="8.355"
       x2="8.3996"
       y1="16.007"
       y2=".79375"
       gradientUnits="userSpaceOnUse">
      <stop
         stop-color="#e5e9f0"
         offset="0"
         id="stop1" />
      <stop
         stop-color="#eceff4"
         offset="1"
         id="stop2" />
    </linearGradient>
    <linearGradient
       id="linearGradient1154"
       x1="36.586"
       x2="36.734"
       y1="11.643"
       y2="-12.581"
       gradientTransform="matrix(.61376 0 0 .61376 -14.156 11.135)"
       gradientUnits="userSpaceOnUse">
      <stop
         stop-color="#ebcb8b"
         offset="0"
         id="stop3" />
      <stop
         stop-color="#d08770"
         offset="1"
         id="stop4" />
    </linearGradient>
    <filter
       id="filter2441"
       x="-0.081537857"
       y="-0.069432494"
       width="1.1630757"
       height="1.138865"
       color-interpolation-filters="sRGB">
      <feGaussianBlur
         stdDeviation="0.32159345"
         id="feGaussianBlur4" />
    </filter>
    <radialGradient
       inkscape:collect="always"
       xlink:href="#linearGradient7"
       id="radialGradient8"
       cx="25.607964"
       cy="8.2883797"
       fx="25.607964"
       fy="8.2883797"
       r="5.8207245"
       gradientTransform="matrix(1,0,0,0.9999765,-17.141463,0.17831484)"
       gradientUnits="userSpaceOnUse" />
    <filter
       inkscape:collect="always"
       style="color-interpolation-filters:sRGB"
       id="filter8"
       x="-0.062928459"
       y="-0.06292994"
       width="1.1258569"
       height="1.1258599">
      <feGaussianBlur
         inkscape:collect="always"
         stdDeviation="0.30524102"
         id="feGaussianBlur8" />
    </filter>
  </defs>
  <g
     stroke-linecap="round"
     stroke-linejoin="round"
     id="g6">
    <rect
       transform="matrix(.99138 0 0 1 .072989 .0019055)"
       x=".79375"
       y=".90545"
       width="15.346"
       height="15.346"
       rx="3.0526"
       ry="3.0526"
       fill="#000000"
       filter="url(#filter1178)"
       opacity=".15"
       stroke-width="1.2489"
       style="mix-blend-mode:normal"
       id="rect4" />
    <rect
       x=".92604"
       y=".92604"
       width="15.081"
       height="15.081"
       rx="3"
       ry="3"
       fill="url(#linearGradient1340)"
       stroke-width="1.2274"
       id="rect5" />
    <rect
       x=".01215"
       y=".0060174"
       width="16.924"
       height="16.927"
       fill="none"
       opacity=".15"
       stroke-width="1.052"
       id="rect6" />
  </g>
  <path
     fill="#ff5e00"
     d="m 8.4660247,2.6459125 c 0.07673,0 0.152926,0.00423 0.229389,0.00714 a 3.9686718,3.9686718 0 0 0 -0.229389,-0.00714 m 0.229389,0.00714 c 2.0134403,0.1187956 3.6099043,1.7888127 3.6099043,3.8318846 0,1.53667 -0.937135,3.181816 -2.6881133,3.040003 -1.470789,-0.149748 -1.861836,-0.727587 -1.94465,-1.478459 -0.08017,-0.724944 0.549529,-1.430839 1.683246,-1.431897 0.7339403,-0.0011 1.4234313,0.379934 1.2541013,0.983701 1.050905,-1.06281 -0.7326173,-2.7912985 -2.4814793,-2.8227833 -0.686314,-0.012171 -1.367075,0.2524075 -1.869244,0.870462 0.413536,-0.2886547 0.745317,-0.3915756 1.158852,-0.4040108 -0.211398,0.1002751 -0.509577,0.2275372 -0.69293,0.5021693 0.334691,-0.2074293 0.705894,-0.2920943 1.154884,-0.247116 -1.292465,0.2735738 -2.200761,1.9375048 -2.08223,3.7469548 a 3.8257996,3.8257996 0 0 1 -1.170758,-2.75902 c 0,-2.05392 1.613397,-3.7313453 3.641653,-3.8340016 a 5.8207186,5.8207186 0 0 0 -1.93486,0.3984546 5.8365933,5.8365933 0 0 0 -2.403957,1.7700276 q -0.0127,1.1548835 0.298444,2.4719534 C 3.9073437,6.6013551 3.6742507,5.9116002 3.6335057,5.2215805 a 5.7942608,5.7942608 0 0 0 -0.825483,1.8750646 5.1592733,5.1592733 0 0 0 0.923642,1.585352 q -0.513282,-0.321991 -1.026564,-1.047465 a 5.8736343,5.8736343 0 0 0 0.02117,1.801777 c 0.418563,0.421473 0.836067,0.6913429 1.254101,0.9175579 q -0.509578,0.03704 -1.097206,-0.235475 c 0.597418,2.020583 2.287807,3.585033 4.331145,4.033229 0.343157,-0.36062 0.486823,-0.774156 0.790295,-1.300931 0.01667,0.325696 -0.154249,0.832627 -0.39237,1.373954 a 5.8736343,5.8736343 0 0 0 1.708381,0 c -0.23812,-0.541327 -0.409038,-1.048258 -0.392369,-1.373954 0.303736,0.526775 0.447137,0.939781 0.790295,1.300931 2.0443953,-0.449783 3.7337263,-2.011588 4.3311443,-4.032965 q -0.587629,0.272516 -1.097207,0.235211 c 0.418034,-0.226215 0.835803,-0.4960849 1.254101,-0.9172929 0.09974,-0.596094 0.107154,-1.20383 0.02117,-1.801777 q -0.51329,0.724944 -1.026571,1.0472 a 5.1328155,5.1328155 0 0 0 0.923906,-1.585352 5.767803,5.767803 0 0 0 -0.825748,-1.8758584 c -0.04075,0.6902844 -0.273837,1.3805684 -0.59477,2.0705884 q 0.311408,-1.317599 0.298444,-2.4719534 A 5.828656,5.828656 0 0 0 9.9444877,2.835615 v -7.937e-4 a 5.8207186,5.8207186 0 0 0 -1.24828,-0.1817652 z m 0.19129,2.7542582 c 0.452429,0.1701237 0.864906,0.047624 0.670706,0.3132605 -0.243941,-0.073024 -0.463012,-0.1849401 -0.670706,-0.3132605"
     id="path2-6"
     style="opacity:0.25;fill:#2e3440;fill-opacity:1;stroke-width:0.264578;filter:url(#filter8)" />
  <path
     fill="#ff5e00"
     d="m 8.4660245,2.6459124 c 0.07673,0 0.152926,0.00423 0.229389,0.00714 a 3.9686718,3.9686718 0 0 0 -0.229389,-0.00714 m 0.229389,0.00714 c 2.0134395,0.1187956 3.6099035,1.7888127 3.6099035,3.8318849 0,1.5366697 -0.937136,3.1818165 -2.6881135,3.0400026 C 8.1464145,9.3751923 7.7553675,8.7973537 7.6725545,8.046481 7.5923875,7.3215369 8.2220835,6.6156425 9.3558005,6.6145842 10.08974,6.6135242 10.779231,6.9945184 10.609901,7.5982856 11.660805,6.5354753 9.8772845,4.8069865 8.1284225,4.7755017 7.4421075,4.7633311 6.7613475,5.0279092 6.2591785,5.6459637 6.6727145,5.357309 7.0044955,5.2543881 7.4180305,5.2419529 7.2066325,5.342228 6.9084535,5.4694901 6.7251005,5.7441222 7.0597915,5.5366929 7.4309945,5.4520279 7.8799845,5.4970062 6.5875195,5.77058 5.6792235,7.4345118 5.7977545,9.2439615 A 3.8257996,3.8257996 0 0 1 4.6269965,6.4849409 c 0,-2.0539199 1.613397,-3.7313452 3.641653,-3.8340015 a 5.8207186,5.8207186 0 0 0 -1.93486,0.3984546 5.8365933,5.8365933 0 0 0 -2.403957,1.7700276 q -0.0127,1.1548835 0.298444,2.4719534 C 3.9073435,6.6013553 3.6742505,5.9116001 3.6335055,5.2215804 a 5.7942608,5.7942608 0 0 0 -0.825484,1.8750651 5.1592733,5.1592733 0 0 0 0.923642,1.5853521 Q 3.2183825,8.360006 2.7051005,7.6345328 a 5.8736343,5.8736343 0 0 0 0.02117,1.801777 c 0.418563,0.421473 0.836067,0.6913432 1.254101,0.9175572 q -0.509578,0.03704 -1.097206,-0.235475 c 0.597418,2.020583 2.287807,3.585033 4.331144,4.033229 0.343158,-0.36062 0.486824,-0.774156 0.790295,-1.300931 0.01667,0.325696 -0.154249,0.832627 -0.39237,1.373954 a 5.8736343,5.8736343 0 0 0 1.708381,0 c -0.23812,-0.541327 -0.409037,-1.048258 -0.392369,-1.373954 0.303736,0.526775 0.447137,0.939781 0.790295,1.300931 2.0443945,-0.449783 3.7337255,-2.011588 4.3311435,-4.032964 q -0.587628,0.272515 -1.097206,0.23521 C 13.370513,10.127653 13.788282,9.8577828 14.20658,9.4365744 14.30632,8.8404799 14.313734,8.232744 14.22775,7.6347974 Q 13.71446,8.3597415 13.201179,8.6819976 A 5.1328155,5.1328155 0 0 0 14.125085,7.0966455 5.767803,5.767803 0 0 0 13.299337,5.2207866 C 13.258587,5.911071 13.025499,6.6013553 12.704566,7.291375 Q 13.015974,5.973776 13.00301,4.8194216 A 5.828656,5.828656 0 0 0 9.9444875,2.8356149 V 2.8348212 A 5.8207186,5.8207186 0 0 0 8.6962075,2.653056 Z m 0.19129,2.7542582 c 0.452429,0.1701237 0.864906,0.047624 0.670706,0.3132605 C 9.3134685,5.6475471 9.0943975,5.535631 8.8867035,5.4073106"
     id="path2"
     style="fill:url(#radialGradient8);stroke-width:0.264578" />
</svg>
