<?xml version="1.0" encoding="UTF-8" standalone="no"?>
<svg
   id="svg32"
   width="64"
   height="64"
   version="1.1"
   viewBox="0 0 16.933 16.933"
   sodipodi:docname="org.gnome.Decibels.svg"
   inkscape:version="1.4.2 (ebf0e940d0, 2025-05-08)"
   xmlns:inkscape="http://www.inkscape.org/namespaces/inkscape"
   xmlns:sodipodi="http://sodipodi.sourceforge.net/DTD/sodipodi-0.dtd"
   xmlns="http://www.w3.org/2000/svg"
   xmlns:svg="http://www.w3.org/2000/svg">
  <sodipodi:namedview
     id="namedview1"
     pagecolor="#ffffff"
     bordercolor="#000000"
     borderopacity="0.25"
     inkscape:showpageshadow="2"
     inkscape:pageopacity="0.0"
     inkscape:pagecheckerboard="0"
     inkscape:deskcolor="#d1d1d1"
     inkscape:zoom="6.4453125"
     inkscape:cx="13.498182"
     inkscape:cy="43.830303"
     inkscape:window-width="1920"
     inkscape:window-height="1011"
     inkscape:window-x="0"
     inkscape:window-y="0"
     inkscape:window-maximized="1"
     inkscape:current-layer="g30" />
  <defs
     id="defs18">
    <filter
       id="filter1178"
       x="-0.047999482"
       y="-0.047999482"
       width="1.095999"
       height="1.095999"
       color-interpolation-filters="sRGB">
      <feGaussianBlur
         id="feGaussianBlur2"
         stdDeviation="0.30691668" />
    </filter>
    <linearGradient
       id="linearGradient1340"
       x1="2.9496186"
       x2="13.70708"
       y1="3.0216453"
       y2="13.779106"
       gradientTransform="translate(-0.0076499,-0.0030174)"
       gradientUnits="userSpaceOnUse">
      <stop
         id="stop5"
         stop-color="#bf616a"
         offset="0" />
      <stop
         id="stop7"
         stop-color="#d08770"
         offset="1"
         style="stop-color:#b48ead;stop-opacity:1;" />
    </linearGradient>
    <filter
       id="filter2477"
       x="-0.011298458"
       y="-0.01279443"
       width="1.0225969"
       height="1.0255889"
       style="color-interpolation-filters:sRGB">
      <feGaussianBlur
         id="feGaussianBlur2479"
         stdDeviation="0.056386254" />
    </filter>
    <radialGradient
       id="radialGradient3307"
       cx="5.7156811"
       cy="9.473814"
       r="5.988739"
       gradientTransform="matrix(.13630341 .37569957 -.30285842 .10987671 7.9790162 5.4360656)"
       gradientUnits="userSpaceOnUse">
      <stop
         id="stop3299"
         style="stop-color:#d8dee9"
         offset="0" />
      <stop
         id="stop3301"
         style="stop-color:#eceff4"
         offset="1" />
    </radialGradient>
    <filter
       id="c"
       width="1.3091794"
       height="1.2802327"
       x="-0.15458968"
       y="-0.14011633"
       style="color-interpolation-filters:sRGB">
      <feGaussianBlur
         stdDeviation="2.576"
         id="feGaussianBlur4" />
    </filter>
    <mask
       id="d">
      <g
         filter="url(#a)"
         id="g5">
        <path
           fill-opacity="0.8"
           d="M -12.8,-12.8 H 140.8 V 140.8 H -12.8 Z"
           id="path5" />
      </g>
    </mask>
    <filter
       id="a"
       width="1"
       height="1"
       x="0"
       y="0">
      <feColorMatrix
         color-interpolation-filters="sRGB"
         values="0 0 0 0 1 0 0 0 0 1 0 0 0 0 1 0 0 0 1 0"
         id="feColorMatrix4" />
    </filter>
    <clipPath
       id="e">
      <path
         d="M 0,0 H 192 V 152 H 0 Z"
         id="path4" />
    </clipPath>
    <linearGradient
       id="f"
       x1="32"
       x2="96"
       y1="77"
       y2="77"
       gradientUnits="userSpaceOnUse">
      <stop
         offset="0"
         stop-color="#ed333b"
         id="stop3" />
      <stop
         offset="1"
         stop-color="#5d5ae3"
         id="stop4" />
    </linearGradient>
    <linearGradient
       id="i"
       x1="32"
       x2="56"
       y1="239.25"
       y2="196"
       gradientTransform="matrix(0.09662,0,0,0.09662,20.821,-14.298)"
       gradientUnits="userSpaceOnUse">
      <stop
         stop-color="#dbc7c5"
         offset="0"
         id="stop9" />
      <stop
         stop-color="#b48ead"
         offset="1"
         id="stop10" />
    </linearGradient>
    <linearGradient
       id="j"
       x1="64"
       x2="80"
       y1="260"
       y2="220"
       gradientTransform="matrix(0.09662,0,0,0.09662,20.821,-14.298)"
       gradientUnits="userSpaceOnUse">
      <stop
         stop-color="#88c0d0"
         offset="0"
         id="stop7-6" />
      <stop
         stop-color="#5e81ac"
         offset="1"
         id="stop8" />
    </linearGradient>
    <linearGradient
       id="m"
       x1="529.28998"
       x2="543.34003"
       y1="441.73001"
       y2="408.60001"
       gradientTransform="matrix(0.09662,0,0,0.09662,-27.875,-29.564)"
       gradientUnits="userSpaceOnUse">
      <stop
         stop-color="#ebcb8b"
         offset="0"
         id="stop3-2" />
      <stop
         stop-color="#ebcb8b"
         offset="1"
         id="stop4-9" />
    </linearGradient>
    <linearGradient
       id="linearGradient3775"
       x1="24.721001"
       x2="22.694"
       y1="9.6765003"
       y2="13.187"
       gradientUnits="userSpaceOnUse">
      <stop
         stop-color="#2e3440"
         stop-opacity="0"
         offset="0"
         id="stop13" />
      <stop
         stop-color="#eceff4"
         stop-opacity=".3"
         offset="1"
         id="stop14" />
    </linearGradient>
    <linearGradient
       id="k"
       x1="56"
       x2="0"
       y1="252"
       y2="244"
       gradientTransform="matrix(0.09662,0,0,0.09662,20.821,-14.298)"
       gradientUnits="userSpaceOnUse">
      <stop
         stop-color="#fff"
         offset="0"
         id="stop5-1" />
      <stop
         stop-color="#fff"
         stop-opacity="0"
         offset="1"
         id="stop6" />
    </linearGradient>
    <linearGradient
       id="linearGradient2994"
       x1="32.014999"
       x2="28.145"
       y1="8.2103004"
       y2="9.2475004"
       gradientUnits="userSpaceOnUse">
      <stop
         stop-color="#8fbcbb"
         offset="0"
         id="stop11" />
      <stop
         stop-color="#88c0d0"
         offset="1"
         id="stop12" />
    </linearGradient>
  </defs>
  <g
     id="g30"
     stroke-linecap="round"
     stroke-linejoin="round">
    <rect
       transform="matrix(0.99138,0,0,1,0.072989,0.0019055)"
       x="0.79374999"
       y="0.90544999"
       width="15.346"
       height="15.346"
       rx="3.0525999"
       ry="3.0525999"
       fill="#000000"
       filter="url(#filter1178)"
       opacity="0.15"
       stroke-width="1.2489"
       style="display:inline;mix-blend-mode:normal"
       id="rect1" />
    <rect
       id="rect22"
       x="0.91838998"
       y="0.92302001"
       width="15.081"
       height="15.081"
       rx="3"
       ry="3"
       fill="url(#linearGradient1340)"
       stroke-width="1.2274"
       style="display:inline" />
    <rect
       id="rect24"
       x="0.0045000999"
       y="0.003"
       width="16.924"
       height="16.927"
       fill="none"
       opacity="0.15"
       stroke-width="1.052"
       style="display:inline" />
    <path
       fill="#f6f5f4"
       fill-rule="evenodd"
       d="m 18.83,9.831 a 6.665,6.665 0 0 0 -6.824,6.663 V 33.95 l 0.006,0.013 c -0.01,4.44 -0.001,8.879 -0.006,13.319 -0.062,3.355 2.75,6.428 6.103,6.638 1.334,0.148 2.626,-0.225 3.803,-0.822 0.03,-0.015 0.062,-0.026 0.093,-0.042 l 0.11,-0.064 q 0.37,-0.198 0.723,-0.416 l 10e-4,-0.002 25.83,-14.937 c 2.935,-1.622 4.19,-5.595 2.696,-8.604 -0.684,-1.559 -2.057,-2.646 -3.53,-3.422 L 47.733,25.575 22.005,10.72 A 6.66,6.66 0 0 0 18.83,9.83 m 0,0"
       style="display:inline;opacity:0.25;fill:#000000;fill-opacity:1;stroke-width:0.41662;filter:url(#c)"
       id="path6"
       transform="matrix(0.22026421,0,0,0.22026421,1.5819897,1.4421045)" />
    <path
       fill="#f6f5f4"
       fill-rule="evenodd"
       d="M 5.7294725,3.6075785 A 1.4680388,1.4680388 0 0 0 4.2265153,5.0750353 v 3.8448352 l 0.00143,0.00285 c -0.00241,0.9777207 -5.818e-4,1.9557365 -0.00143,2.9337505 -0.013677,0.739112 0.6055473,1.415951 1.3443688,1.462218 0.2938983,0.03259 0.5781942,-0.04946 0.8374662,-0.180994 0.0067,-0.0036 0.013677,-0.0058 0.020373,-0.0095 l 0.024434,-0.01402 q 0.081481,-0.04363 0.1591702,-0.09166 l 2.92e-4,-3.42e-4 5.6891225,-3.2899208 C 12.948614,9.3746317 13.224763,8.499628 12.895947,7.8370464 12.745214,7.49368 12.442585,7.2541958 12.118423,7.0830949 l -0.0227,-0.0079 L 6.4287145,3.8036034 A 1.4665839,1.4665839 0 0 0 5.7294725,3.6075835 m 0,0"
       style="display:inline;stroke-width:0.0917668"
       id="path7" />
    <g
       mask="url(#d)"
       transform="matrix(0.09176648,0,0,0.09176648,3.5114732,2.8687447)"
       id="g9"
       style="display:inline">
      <g
         clip-path="url(#e)"
         transform="translate(-13.793268,-16)"
         id="g8">
        <path
           fill="url(#f)"
           d="m 96,73 c 2.215,0 4,1.785 4,4 0,2.215 -1.785,4 -4,4 -2.215,0 -4,-1.785 -4,-4 0,-2.215 1.785,-4 4,-4 m -60,0 c 2.215,0 4,1.785 4,4 0,2.215 -1.785,4 -4,4 -2.215,0 -4,-1.785 -4,-4 0,-2.215 1.785,-4 4,-4 m 48,0 c 2.215,0 4,1.785 4,4 0,2.215 -1.785,4 -4,4 -2.215,0 -4,-1.785 -4,-4 0,-2.215 1.785,-4 4,-4 M 72,64 c 2.215,0 4,1.785 4,4 v 18 c 0,2.215 -1.785,4 -4,4 -2.215,0 -4,-1.785 -4,-4 V 68 c 0,-2.215 1.785,-4 4,-4 M 60,52 c 2.215,0 4,1.785 4,4 v 42 c 0,2.215 -1.785,4 -4,4 -2.215,0 -4,-1.785 -4,-4 V 56 c 0,-2.215 1.785,-4 4,-4 M 48,70 c 2.215,0 4,1.785 4,4 v 6 c 0,2.215 -1.785,4 -4,4 -2.215,0 -4,-1.785 -4,-4 v -6 c 0,-2.215 1.785,-4 4,-4 m 0,0"
           style="fill:url(#f)"
           id="path8" />
      </g>
    </g>
  </g>
</svg>
