<?xml version="1.0" encoding="UTF-8" standalone="no"?>
<svg
   width="64"
   height="64"
   version="1.1"
   viewBox="0 0 16.933 16.933"
   id="svg7"
   sodipodi:docname="zen-browser.svg"
   inkscape:version="1.4.2 (ebf0e940d0, 2025-05-08)"
   xmlns:inkscape="http://www.inkscape.org/namespaces/inkscape"
   xmlns:sodipodi="http://sodipodi.sourceforge.net/DTD/sodipodi-0.dtd"
   xmlns="http://www.w3.org/2000/svg"
   xmlns:svg="http://www.w3.org/2000/svg">
  <sodipodi:namedview
     id="namedview7"
     pagecolor="#ffffff"
     bordercolor="#000000"
     borderopacity="0.25"
     inkscape:showpageshadow="2"
     inkscape:pageopacity="0.0"
     inkscape:pagecheckerboard="0"
     inkscape:deskcolor="#d1d1d1"
     inkscape:zoom="9.1150484"
     inkscape:cx="28.304842"
     inkscape:cy="23.203388"
     inkscape:window-width="1920"
     inkscape:window-height="1011"
     inkscape:window-x="0"
     inkscape:window-y="0"
     inkscape:window-maximized="1"
     inkscape:current-layer="svg7" />
  <defs
     id="defs4">
    <filter
       id="filter1178"
       x="-0.04799993"
       y="-0.04799993"
       width="1.0959999"
       height="1.0959999"
       color-interpolation-filters="sRGB">
      <feGaussianBlur
         stdDeviation="0.30691955"
         id="feGaussianBlur1" />
    </filter>
    <linearGradient
       id="linearGradient1340"
       x1="8.5011"
       x2="8.489"
       y1="16.007"
       y2=".79375"
       gradientUnits="userSpaceOnUse">
      <stop
         stop-color="#2e3440"
         offset="0"
         id="stop1" />
      <stop
         stop-color="#4c566a"
         offset="1"
         id="stop2" />
    </linearGradient>
    <linearGradient
       id="linearGradient494"
       x1="8.6426"
       x2="8.6426"
       y1="5.6761"
       y2="11.174"
       gradientTransform="matrix(1.1228 0 0 1.1228 -1.0401 -1.0401)"
       gradientUnits="userSpaceOnUse">
      <stop
         stop-color="#eceff4"
         offset="0"
         id="stop3" />
      <stop
         stop-color="#d8dee9"
         offset="1"
         id="stop4" />
    </linearGradient>
    <filter
       id="filter1140"
       x="-0.036373103"
       y="-0.070555812"
       width="1.0727462"
       height="1.1411116"
       color-interpolation-filters="sRGB">
      <feGaussianBlur
         stdDeviation="0.16153418"
         id="feGaussianBlur4" />
    </filter>
    <filter
       inkscape:collect="always"
       style="color-interpolation-filters:sRGB"
       id="filter7"
       x="-0.0629292"
       y="-0.062929201"
       width="1.1258584"
       height="1.1258584">
      <feGaussianBlur
         inkscape:collect="always"
         stdDeviation="0.24974534"
         id="feGaussianBlur7" />
    </filter>
  </defs>
  <g
     stroke-linecap="round"
     stroke-linejoin="round"
     id="g6">
    <rect
       transform="matrix(.99138 0 0 1 .072989 .0019055)"
       x=".79375"
       y=".90545"
       width="15.346"
       height="15.346"
       rx="3.0526"
       ry="3.0526"
       filter="url(#filter1178)"
       opacity=".15"
       stroke-width="1.2489"
       style="mix-blend-mode:normal"
       id="rect4" />
    <rect
       x=".92604"
       y=".92604"
       width="15.081"
       height="15.081"
       rx="3"
       ry="3"
       fill="url(#linearGradient1340)"
       stroke-width="1.2274"
       id="rect5" />
    <rect
       x=".01215"
       y=".0060174"
       width="16.924"
       height="16.927"
       fill="none"
       opacity=".15"
       stroke-width="1.052"
       id="rect6" />
  </g>
  <path
     fill="#ffffff"
     d="m 8.4662354,10.298174 a 1.8318066,1.8318066 0 1 0 -2.65e-4,-3.6636129 1.8318066,1.8318066 0 0 0 2.65e-4,3.6636129 m 1.465234,-1.8316738 a 1.4657628,1.4657628 0 1 1 -2.929939,0 1.4657628,1.4657628 0 0 1 2.929939,0 m 1.7097026,0 c 0,1.7533588 -1.421578,3.1746728 -3.1749366,3.1746728 -1.753359,0 -3.1749375,-1.421579 -3.1749375,-3.1749378 0,-1.7533589 1.4215785,-3.174408 3.1749375,-3.174408 1.7533586,0 3.1752016,1.4213136 3.1752016,3.174673 M 8.4665004,11.031056 c 1.416286,0 2.5645546,-1.1482688 2.5645546,-2.5645558 0,-1.4162868 -1.1482686,-2.5645559 -2.5645546,-2.5645559 -1.416287,0 -2.5642916,1.1482691 -2.5642916,2.5645559 0,1.416287 1.1482686,2.5645558 2.5642916,2.5645558 M 13.228906,8.4665002 c 0,2.6299058 -2.131971,4.7624058 -4.7624056,4.7624058 -2.6304361,0 -4.7624066,-2.1325 -4.7624066,-4.7624058 0,-2.6299067 2.132235,-4.7624063 4.7624066,-4.7624063 2.6301706,0 4.7624056,2.1324996 4.7624056,4.7624063 M 8.4665004,12.374054 c 2.1581626,0 3.9078176,-1.749655 3.9078176,-3.9078188 0,-2.1581635 -1.749919,-3.9070248 -3.9078176,-3.9070248 -2.1578996,0 -3.9078193,1.7493905 -3.9078193,3.9072898 0,2.1578988 1.7493905,3.9075538 3.9078193,3.9075538"
     id="path2-6"
     style="fill:#2e3440;fill-opacity:1;stroke-width:0.264578;filter:url(#filter7);opacity:0.25" />
  <path
     fill="#ffffff"
     d="m 8.4662353,10.298174 a 1.8318066,1.8318066 0 1 0 -2.65e-4,-3.663613 1.8318066,1.8318066 0 0 0 2.65e-4,3.663613 m 1.465234,-1.8316739 a 1.4657628,1.4657628 0 1 1 -2.929939,0 1.4657628,1.4657628 0 0 1 2.929939,0 m 1.7097027,0 c 0,1.7533589 -1.421578,3.1746729 -3.1749367,3.1746729 -1.753359,0 -3.1749375,-1.421579 -3.1749375,-3.1749379 0,-1.7533589 1.4215785,-3.174408 3.1749375,-3.174408 1.7533587,0 3.1752017,1.4213136 3.1752017,3.174673 M 8.4665003,11.031056 c 1.416286,0 2.5645547,-1.1482689 2.5645547,-2.5645559 0,-1.4162868 -1.1482687,-2.5645559 -2.5645547,-2.5645559 -1.416287,0 -2.5642916,1.1482691 -2.5642916,2.5645559 0,1.416287 1.1482686,2.5645559 2.5642916,2.5645559 M 13.228906,8.4665001 c 0,2.6299059 -2.131971,4.7624059 -4.7624057,4.7624059 -2.6304361,0 -4.7624066,-2.1325 -4.7624066,-4.7624059 0,-2.6299067 2.132235,-4.7624063 4.7624066,-4.7624063 2.6301707,0 4.7624057,2.1324996 4.7624057,4.7624063 M 8.4665003,12.374054 c 2.1581627,0 3.9078177,-1.749655 3.9078177,-3.9078189 0,-2.1581635 -1.749919,-3.9070248 -3.9078177,-3.9070248 -2.1578996,0 -3.9078193,1.7493905 -3.9078193,3.9072898 0,2.1578989 1.7493905,3.9075539 3.9078193,3.9075539"
     id="path2"
     style="stroke-width:0.264578;fill:#eceff4;fill-opacity:1" />
</svg>
